<svg width="20" height="20" viewBox="0 0 20 20" fill="none" xmlns="http://www.w3.org/2000/svg">
<path d="M9.93741 12.2939L12.3065 10.0444C12.5578 9.80576 12.6984 9.47118 12.6975 9.11427C12.6965 8.75736 12.554 8.40735 12.3014 8.14124C12.0487 7.87513 11.7065 7.71472 11.3501 7.6953C10.9937 7.67587 10.6523 7.79903 10.401 8.03767L7.08434 11.187C6.58169 11.6642 6.30038 12.3334 6.3023 13.0472C6.30421 13.761 6.58919 14.4611 7.09455 14.9933C7.59991 15.5255 8.28424 15.8463 8.99701 15.8852C9.70978 15.924 10.3926 15.6777 10.8952 15.2004L14.6857 11.6012C15.4397 10.8853 15.8617 9.88157 15.8588 8.81084C15.8559 7.7401 15.4285 6.69007 14.6704 5.89175C13.9124 5.09342 12.8859 4.61219 11.8167 4.55392C10.7476 4.49566 9.72335 4.86512 8.96938 5.58104L4.23127 10.08" stroke="#272727" stroke-width="1.25" stroke-linecap="round" stroke-linejoin="round"/>
</svg>
