<svg width="24" height="24" viewBox="0 0 24 24" fill="none" xmlns="http://www.w3.org/2000/svg">
<path d="M9.25 9.05078C11.0257 9.7008 12.9743 9.7008 14.75 9.05078" stroke="#525252" stroke-linecap="round" stroke-linejoin="round"/>
<path d="M17.3167 20.3454L17.3172 20.3457C17.9443 20.695 18.4137 20.6674 18.6996 20.499C18.9857 20.3305 19.2382 19.9326 19.2382 19.2137V6.48778C19.2298 4.81988 17.8672 3.45164 16.1942 3.45164H7.48663C5.81285 3.45164 4.45164 4.82036 4.45164 6.48663V19.2137C4.45164 19.9269 4.7033 20.3233 4.9902 20.4922C5.27735 20.6613 5.74752 20.6897 6.3739 20.345C6.37411 20.3449 6.37433 20.3447 6.37454 20.3446L10.7804 17.8979L17.3167 20.3454ZM17.3167 20.3454L12.9127 17.8998C12.912 17.8994 12.9112 17.8989 12.9105 17.8985M17.3167 20.3454L12.9105 17.8985M12.9105 17.8985C12.5954 17.72 12.2093 17.6443 11.8483 17.6443C11.4863 17.6443 11.0991 17.7204 10.7811 17.8975L12.9105 17.8985Z" stroke="#525252" stroke-width="0.903271" stroke-linecap="round" stroke-linejoin="round"/>
</svg>
