<svg width="10" height="8" viewBox="0 0 10 8" fill="none" xmlns="http://www.w3.org/2000/svg">
<path d="M2.87573 5.75833L0.996147 3.87875C0.894867 3.77747 0.757502 3.72057 0.614272 3.72057C0.471041 3.72057 0.333676 3.77747 0.232397 3.87875C0.131117 3.98003 0.0742188 4.11739 0.0742188 4.26063C0.0742188 4.33155 0.0881877 4.40177 0.115328 4.46729C0.142468 4.53282 0.182248 4.59235 0.232397 4.6425L2.49656 6.90667C2.70781 7.11792 3.04906 7.11792 3.26031 6.90667L8.99115 1.17583C9.09243 1.07455 9.14932 0.93719 9.14932 0.793959C9.14932 0.650728 9.09243 0.513364 8.99115 0.412084C8.88987 0.310805 8.7525 0.253906 8.60927 0.253906C8.46604 0.253906 8.32868 0.310805 8.2274 0.412084L2.87573 5.75833Z" fill="#6E6E6E"/>
</svg>
