<svg width="20" height="20" viewBox="0 0 20 20" fill="none" xmlns="http://www.w3.org/2000/svg">
<path d="M18.3346 18.3346L16.668 16.668M9.58464 17.5013C10.6243 17.5013 11.6537 17.2965 12.6142 16.8987C13.5747 16.5008 14.4474 15.9177 15.1826 15.1826C15.9177 14.4474 16.5008 13.5747 16.8987 12.6142C17.2965 11.6537 17.5013 10.6243 17.5013 9.58464C17.5013 8.545 17.2965 7.51555 16.8987 6.55506C16.5008 5.59456 15.9177 4.72184 15.1826 3.98671C14.4474 3.25158 13.5747 2.66844 12.6142 2.27059C11.6537 1.87274 10.6243 1.66797 9.58464 1.66797C7.485 1.66797 5.47137 2.50204 3.98671 3.98671C2.50204 5.47137 1.66797 7.485 1.66797 9.58464C1.66797 11.6843 2.50204 13.6979 3.98671 15.1826C5.47137 16.6672 7.485 17.5013 9.58464 17.5013Z" stroke="#EB5CF8" stroke-width="1.5" stroke-linecap="round" stroke-linejoin="round"/>
</svg>
