<svg width="20" height="20" viewBox="0 0 20 20" fill="none" xmlns="http://www.w3.org/2000/svg">
<path d="M7.5 9.375C7.83152 9.375 8.14946 9.2433 8.38388 9.00888C8.6183 8.77446 8.75 8.45652 8.75 8.125C8.75 7.79348 8.6183 7.47554 8.38388 7.24112C8.14946 7.0067 7.83152 6.875 7.5 6.875C7.16848 6.875 6.85054 7.0067 6.61612 7.24112C6.3817 7.47554 6.25 7.79348 6.25 8.125C6.25 8.45652 6.3817 8.77446 6.61612 9.00888C6.85054 9.2433 7.16848 9.375 7.5 9.375ZM13.75 8.125C13.75 8.45652 13.6183 8.77446 13.3839 9.00888C13.1495 9.2433 12.8315 9.375 12.5 9.375C12.1685 9.375 11.8505 9.2433 11.6161 9.00888C11.3817 8.77446 11.25 8.45652 11.25 8.125C11.25 7.79348 11.3817 7.47554 11.6161 7.24112C11.8505 7.0067 12.1685 6.875 12.5 6.875C12.8315 6.875 13.1495 7.0067 13.3839 7.24112C13.6183 7.47554 13.75 7.79348 13.75 8.125ZM5.97063 11.9413C6.1181 11.8675 6.28875 11.855 6.44538 11.9065C6.60201 11.9581 6.73195 12.0694 6.80687 12.2162L6.80875 12.22L6.83 12.2563C6.85188 12.2919 6.88812 12.3475 6.94062 12.4181C7.04625 12.5587 7.21563 12.7531 7.46063 12.9494C7.94375 13.3356 8.74563 13.75 10 13.75C11.2544 13.75 12.0562 13.3356 12.5394 12.95C12.785 12.7531 12.9544 12.5587 13.0594 12.4181C13.1072 12.3547 13.1512 12.2886 13.1913 12.22L13.1938 12.2156C13.2692 12.0688 13.3996 11.9578 13.5565 11.9068C13.7135 11.8557 13.8843 11.8689 14.0316 11.9433C14.1789 12.0178 14.2908 12.1475 14.3428 12.3041C14.3949 12.4607 14.3829 12.6316 14.3094 12.7794L14.3081 12.7812V12.7825L14.3056 12.7863L14.3006 12.7956C14.2812 12.8329 14.2604 12.8694 14.2381 12.905C14.1833 12.9955 14.1238 13.0831 14.06 13.1675C13.8461 13.4503 13.5975 13.705 13.32 13.9256C12.6313 14.4769 11.5581 15 10 15C8.44187 15 7.36875 14.4769 6.68 13.925C6.4028 13.7047 6.15439 13.4504 5.94063 13.1681C5.85188 13.0496 5.77128 12.9251 5.69938 12.7956L5.69438 12.7863L5.6925 12.7825L5.69188 12.7806L5.69125 12.7794C5.61724 12.6312 5.60509 12.4596 5.65747 12.3025C5.70986 12.1453 5.82249 12.0154 5.97063 11.9413ZM10 1.25C5.1675 1.25 1.25 5.1675 1.25 10C1.25 14.8325 5.1675 18.75 10 18.75C14.8325 18.75 18.75 14.8325 18.75 10C18.75 5.1675 14.8325 1.25 10 1.25ZM2.5 10C2.5 5.85813 5.85813 2.5 10 2.5C14.1419 2.5 17.5 5.85813 17.5 10C17.5 14.1419 14.1419 17.5 10 17.5C5.85813 17.5 2.5 14.1419 2.5 10Z" fill="#272727"/>
</svg>
