<svg width="25" height="24" viewBox="0 0 25 24" fill="none" xmlns="http://www.w3.org/2000/svg">
<path d="M9.67049 18.3305H9.2343C5.74477 18.3305 4 17.4581 4 13.0962V8.7343C4 5.24477 5.74477 3.5 9.2343 3.5H16.2134C19.7029 3.5 21.4477 5.24477 21.4477 8.7343V13.0962C21.4477 16.5857 19.7029 18.3305 16.2134 18.3305H15.7772C15.5067 18.3305 15.245 18.4614 15.0793 18.6795L13.7707 20.4242C13.1949 21.1919 12.2527 21.1919 11.677 20.4242L10.3684 18.6795C10.2288 18.4875 9.90603 18.3305 9.67049 18.3305Z" stroke="#525252" stroke-miterlimit="10" stroke-linecap="round" stroke-linejoin="round"/>
<path d="M9.35725 11.3503H9.36509" stroke="#525252" stroke-width="2.02587" stroke-linecap="round" stroke-linejoin="round"/>
<path d="M13.2283 11.3503H13.2362" stroke="#525252" stroke-width="2.02587" stroke-linecap="round" stroke-linejoin="round"/>
<path d="M17.0994 11.3503H17.1073" stroke="#525252" stroke-width="2.02587" stroke-linecap="round" stroke-linejoin="round"/>
</svg>
