<svg width="20" height="20" viewBox="0 0 20 20" fill="none" xmlns="http://www.w3.org/2000/svg">
<path d="M10.0013 12.918C11.843 12.918 13.3346 11.4263 13.3346 9.58464V5.0013C13.3346 3.15964 11.843 1.66797 10.0013 1.66797C8.15964 1.66797 6.66797 3.15964 6.66797 5.0013V9.58464C6.66797 11.4263 8.15964 12.918 10.0013 12.918Z" stroke="#272727" stroke-width="1.25" stroke-linecap="round" stroke-linejoin="round"/>
<path d="M3.625 8.04193V9.45859C3.625 12.9753 6.48333 15.8336 10 15.8336M10 15.8336C13.5167 15.8336 16.375 12.9753 16.375 9.45859V8.04193M10 15.8336V18.3336M8.84167 5.35859C9.59167 5.08359 10.4083 5.08359 11.1583 5.35859M9.33333 7.12526C9.775 7.00859 10.2333 7.00859 10.675 7.12526" stroke="#272727" stroke-width="1.25" stroke-linecap="round" stroke-linejoin="round"/>
</svg>
