<svg width="24" height="24" viewBox="0 0 24 24" fill="none" xmlns="http://www.w3.org/2000/svg">
<path d="M10.6914 11.9986C10.6914 12.7186 11.2814 13.3086 12.0014 13.3086C12.7214 13.3086 13.3114 12.7186 13.3114 11.9986C13.3114 11.2786 12.7214 10.6886 12.0014 10.6886C11.2814 10.6886 10.6914 11.2786 10.6914 11.9986ZM10.6914 16.9986C10.6914 17.7186 11.2814 18.3086 12.0014 18.3086C12.7214 18.3086 13.3114 17.7186 13.3114 16.9986C13.3114 16.2786 12.7214 15.6886 12.0014 15.6886C11.2814 15.6886 10.6914 16.2786 10.6914 16.9986ZM10.6914 6.99859C10.6914 7.71859 11.2814 8.30859 12.0014 8.30859C12.7214 8.30859 13.3114 7.71859 13.3114 6.99859C13.3114 6.27859 12.7214 5.68859 12.0014 5.68859C11.2814 5.68859 10.6914 6.27859 10.6914 6.99859Z" fill="black"/>
</svg>
