<svg width="41" height="40" viewBox="0 0 41 40" fill="none" xmlns="http://www.w3.org/2000/svg">
<rect x="0.996094" width="40.0023" height="40" rx="20" fill="#FDEBFE"/>
<path d="M24.0804 13.5671L15.1974 15.3012C9.22761 16.4622 8.82169 19.5923 14.2979 22.2377L15.9539 23.0391C16.4355 23.2769 16.776 23.7189 16.8831 24.2453L17.2298 26.0434C18.3909 32.0133 21.5135 32.425 24.1664 26.943L28.1089 18.7962C29.8775 15.1416 28.0653 12.7892 24.0804 13.5671ZM24.1078 18.6077L20.0623 21.7243C19.7552 21.961 19.3042 21.9025 19.0676 21.5953C18.831 21.2882 18.8895 20.8373 19.1966 20.6006L23.242 17.484C23.5492 17.2474 24.0001 17.3058 24.2368 17.613C24.4734 17.9202 24.4149 18.3711 24.1078 18.6077Z" fill="#E10BF4"/>
</svg>
