<svg width="20" height="20" viewBox="0 0 20 20" fill="none" xmlns="http://www.w3.org/2000/svg">
<path d="M18.3346 5.41667H13.3346M5.0013 5.41667H1.66797M18.3346 14.5833H15.0013M6.66797 14.5833H1.66797M8.33464 8.33333C8.71766 8.33333 9.09693 8.25789 9.45079 8.11132C9.80466 7.96474 10.1262 7.7499 10.397 7.47906C10.6679 7.20822 10.8827 6.88669 11.0293 6.53283C11.1759 6.17896 11.2513 5.79969 11.2513 5.41667C11.2513 5.03364 11.1759 4.65437 11.0293 4.30051C10.8827 3.94664 10.6679 3.62511 10.397 3.35427C10.1262 3.08343 9.80466 2.86859 9.45079 2.72202C9.09693 2.57544 8.71766 2.5 8.33464 2.5C7.56109 2.5 6.81922 2.80729 6.27224 3.35427C5.72526 3.90125 5.41797 4.64312 5.41797 5.41667C5.41797 6.19021 5.72526 6.93208 6.27224 7.47906C6.81922 8.02604 7.56109 8.33333 8.33464 8.33333ZM11.668 17.5C12.4415 17.5 13.1834 17.1927 13.7304 16.6457C14.2773 16.0987 14.5846 15.3569 14.5846 14.5833C14.5846 13.8098 14.2773 13.0679 13.7304 12.5209C13.1834 11.974 12.4415 11.6667 11.668 11.6667C10.8944 11.6667 10.1526 11.974 9.60557 12.5209C9.05859 13.0679 8.7513 13.8098 8.7513 14.5833C8.7513 15.3569 9.05859 16.0987 9.60557 16.6457C10.1526 17.1927 10.8944 17.5 11.668 17.5Z" stroke="#BCBCBC" stroke-width="1.25" stroke-miterlimit="10" stroke-linecap="round" stroke-linejoin="round"/>
</svg>
