<svg width="25" height="24" viewBox="0 0 25 24" fill="none" xmlns="http://www.w3.org/2000/svg">
<path fill-rule="evenodd" clip-rule="evenodd" d="M19.55 6.975C19.55 8.61805 18.218 9.95 16.575 9.95C15.7152 9.95 14.9405 9.58523 14.3974 9.00199L10.0518 11.5701C10.148 11.8627 10.2 12.1753 10.2 12.5C10.2 12.8247 10.148 13.1373 10.0518 13.4299L14.3975 15.9978C14.9407 15.4147 15.7152 15.05 16.575 15.05C18.218 15.05 19.55 16.382 19.55 18.025C19.55 19.668 18.218 21 16.575 21C14.932 21 13.6 19.668 13.6 18.025C13.6 17.7003 13.652 17.3877 13.7482 17.0951L9.40246 14.5272C8.85933 15.1103 8.08476 15.475 7.225 15.475C5.58195 15.475 4.25 14.143 4.25 12.5C4.25 10.857 5.58195 9.525 7.225 9.525C8.08475 9.525 8.85933 9.8897 9.40246 10.4728L13.7482 7.9049L13.7485 7.9059C13.6522 7.61305 13.6 7.30012 13.6 6.975C13.6 5.33195 14.932 4 16.575 4C18.218 4 19.55 5.33195 19.55 6.975ZM18.275 6.975C18.275 7.91388 17.5139 8.675 16.575 8.675C15.6361 8.675 14.875 7.91388 14.875 6.975C14.875 6.03612 15.6361 5.275 16.575 5.275C17.5139 5.275 18.275 6.03612 18.275 6.975ZM7.225 14.2C8.16388 14.2 8.925 13.4389 8.925 12.5C8.925 11.5611 8.16388 10.8 7.225 10.8C6.28612 10.8 5.525 11.5611 5.525 12.5C5.525 13.4389 6.28612 14.2 7.225 14.2ZM18.275 18.025C18.275 18.9639 17.5139 19.725 16.575 19.725C15.6361 19.725 14.875 18.9639 14.875 18.025C14.875 17.0861 15.6361 16.325 16.575 16.325C17.5139 16.325 18.275 17.0861 18.275 18.025Z" fill="#525252"/>
</svg>
