<svg width="49" height="49" viewBox="0 0 49 49" fill="none" xmlns="http://www.w3.org/2000/svg">
<path d="M24.5 44.5C35.5 44.5 44.5 35.5 44.5 24.5C44.5 13.5 35.5 4.5 24.5 4.5C13.5 4.5 4.5 13.5 4.5 24.5C4.5 35.5 13.5 44.5 24.5 44.5ZM16.5 24.5H32.5H16.5ZM24.5 32.5V16.5V32.5Z" fill="white"/>
<path d="M16.5 24.5H32.5M24.5 32.5V16.5M24.5 44.5C35.5 44.5 44.5 35.5 44.5 24.5C44.5 13.5 35.5 4.5 24.5 4.5C13.5 4.5 4.5 13.5 4.5 24.5C4.5 35.5 13.5 44.5 24.5 44.5Z" stroke="#E10BF4" stroke-width="2" stroke-linecap="round" stroke-linejoin="round"/>
</svg>
