<svg width="25" height="24" viewBox="0 0 25 24" fill="none" xmlns="http://www.w3.org/2000/svg">
<path d="M9.5 9.05078C11.2757 9.7008 13.2243 9.7008 15 9.05078" stroke="#272727" stroke-width="1.5" stroke-linecap="round" stroke-linejoin="round"/>
<path d="M17.0703 2H7.43031C5.30031 2 3.57031 3.74 3.57031 5.86V19.95C3.57031 21.75 4.86031 22.51 6.44031 21.64L11.3203 18.93C11.8403 18.64 12.6803 18.64 13.1903 18.93L18.0703 21.64C19.6503 22.52 20.9403 21.76 20.9403 19.95V5.86C20.9303 3.74 19.2003 2 17.0703 2Z" stroke="#272727" stroke-width="1.5" stroke-linecap="round" stroke-linejoin="round"/>
<path d="M17.0703 2H7.43031C5.30031 2 3.57031 3.74 3.57031 5.86V19.95C3.57031 21.75 4.86031 22.51 6.44031 21.64L11.3203 18.93C11.8403 18.64 12.6803 18.64 13.1903 18.93L18.0703 21.64C19.6503 22.52 20.9403 21.76 20.9403 19.95V5.86C20.9303 3.74 19.2003 2 17.0703 2Z" stroke="#272727" stroke-width="1.5" stroke-linecap="round" stroke-linejoin="round"/>
</svg>
