<svg width="22" height="20" viewBox="0 0 22 20" fill="none" xmlns="http://www.w3.org/2000/svg">
<path d="M19.0383 4.82165L13.2783 0.791647C11.7083 -0.308353 9.29828 -0.248353 7.78828 0.921647L2.77828 4.83165C1.77828 5.61165 0.988281 7.21165 0.988281 8.47165V15.3716C0.988281 17.9216 3.05828 20.0016 5.60828 20.0016H16.3883C18.9383 20.0016 21.0083 17.9316 21.0083 15.3816V8.60165C21.0083 7.25165 20.1383 5.59165 19.0383 4.82165ZM11.7483 16.0016C11.7483 16.4116 11.4083 16.7516 10.9983 16.7516C10.5883 16.7516 10.2483 16.4116 10.2483 16.0016V13.0016C10.2483 12.5916 10.5883 12.2516 10.9983 12.2516C11.4083 12.2516 11.7483 12.5916 11.7483 13.0016V16.0016Z" fill="#E10BF4"/>
</svg>
