<svg width="25" height="24" viewBox="0 0 25 24" fill="none" xmlns="http://www.w3.org/2000/svg">
<path d="M19.2198 16.83L19.6098 19.99C19.7098 20.82 18.8198 21.4 18.1098 20.97L13.9198 18.48C13.4598 18.48 13.0098 18.45 12.5698 18.39C13.3278 17.5113 13.7464 16.3904 13.7498 15.23C13.7498 12.39 11.2898 10.09 8.24984 10.09C7.08984 10.09 6.01984 10.42 5.12984 11C5.09984 10.75 5.08984 10.5 5.08984 10.24C5.08984 5.69 9.03984 2 13.9198 2C18.7998 2 22.7498 5.69 22.7498 10.24C22.7498 12.94 21.3598 15.33 19.2198 16.83Z" stroke="#272727" stroke-width="1.5" stroke-linecap="round" stroke-linejoin="round"/>
<path d="M13.75 15.2298C13.75 16.4198 13.31 17.5198 12.57 18.3898C11.58 19.5898 10.01 20.3598 8.25 20.3598L5.64 21.9098C5.2 22.1798 4.64 21.8098 4.7 21.2998L4.95 19.3298C3.61 18.3998 2.75 16.9098 2.75 15.2298C2.75 13.4698 3.69 11.9198 5.13 10.9998C6.02 10.4198 7.09 10.0898 8.25 10.0898C11.29 10.0898 13.75 12.3898 13.75 15.2298Z" stroke="#272727" stroke-width="1.5" stroke-linecap="round" stroke-linejoin="round"/>
</svg>
