<svg width="25" height="24" viewBox="0 0 25 24" fill="none" xmlns="http://www.w3.org/2000/svg">
<path d="M19.2202 16.83L19.6103 19.99C19.7103 20.82 18.8203 21.4 18.1103 20.97L14.6502 18.91C14.4102 18.77 14.3502 18.47 14.4802 18.23C14.9802 17.31 15.2502 16.27 15.2502 15.23C15.2502 11.57 12.1102 8.59 8.25025 8.59C7.46025 8.59 6.69025 8.71 5.97025 8.95C5.88512 8.97626 5.79456 8.97953 5.70776 8.95948C5.62096 8.93943 5.54101 8.89678 5.47602 8.83585C5.41102 8.77492 5.36331 8.69788 5.33771 8.61255C5.31211 8.52723 5.30953 8.43664 5.33025 8.35C6.24025 4.71 9.74025 2 13.9202 2C18.8003 2 22.7502 5.69 22.7502 10.24C22.7502 12.94 21.3602 15.33 19.2202 16.83Z" fill="#E10BF4"/>
<path d="M13.75 15.2298C13.75 16.4198 13.31 17.5198 12.57 18.3898C11.58 19.5898 10.01 20.3598 8.25 20.3598L5.64 21.9098C5.2 22.1798 4.64 21.8098 4.7 21.2998L4.95 19.3298C3.61 18.3998 2.75 16.9098 2.75 15.2298C2.75 13.4698 3.69 11.9198 5.13 10.9998C6.02 10.4198 7.09 10.0898 8.25 10.0898C11.29 10.0898 13.75 12.3898 13.75 15.2298Z" fill="#E10BF4"/>
</svg>
